<svg width="14" height="18" viewBox="0 0 14 18" fill="none" xmlns="http://www.w3.org/2000/svg">
<path d="M11.1666 6.49999V4.83332C11.1666 2.49999 9.33325 0.666656 6.99992 0.666656C4.66659 0.666656 2.83325 2.49999 2.83325 4.83332V6.49999C1.41659 6.49999 0.333252 7.58332 0.333252 8.99999V14.8333C0.333252 16.25 1.41659 17.3333 2.83325 17.3333H11.1666C12.5833 17.3333 13.6666 16.25 13.6666 14.8333V8.99999C13.6666 7.58332 12.5833 6.49999 11.1666 6.49999ZM4.49992 4.83332C4.49992 3.41666 5.58325 2.33332 6.99992 2.33332C8.41658 2.33332 9.49992 3.41666 9.49992 4.83332V6.49999H4.49992V4.83332Z" fill="#51606C"/>
</svg>
