<svg width="19" height="18" viewBox="0 0 19 18" fill="none" xmlns="http://www.w3.org/2000/svg">
<path d="M14 4.5H11.3075L13.0325 2.7825C13.1024 2.71257 13.1579 2.62956 13.1957 2.53819C13.2336 2.44682 13.2531 2.3489 13.2531 2.25C13.2531 2.15111 13.2336 2.05318 13.1957 1.96181C13.1579 1.87045 13.1024 1.78743 13.0325 1.7175C12.9626 1.64757 12.8796 1.5921 12.7882 1.55426C12.6968 1.51641 12.5989 1.49693 12.5 1.49693C12.3003 1.49693 12.1087 1.57627 11.9675 1.7175L9.5 4.155L8.6225 2.655C8.57325 2.56931 8.50761 2.49417 8.42933 2.43385C8.35104 2.37353 8.26163 2.32922 8.16622 2.30345C8.07081 2.27768 7.97126 2.27096 7.87325 2.28366C7.77524 2.29637 7.68069 2.32826 7.595 2.3775C7.50931 2.42675 7.43416 2.49239 7.37384 2.57068C7.31352 2.64896 7.26922 2.73837 7.24345 2.83378C7.21768 2.92919 7.21096 3.02875 7.22366 3.12676C7.23637 3.22477 7.26825 3.31931 7.3175 3.405L8 4.5H5C4.40326 4.5 3.83097 4.73705 3.40901 5.15901C2.98705 5.58097 2.75 6.15326 2.75 6.75V12.75C2.75 13.3467 2.98705 13.919 3.40901 14.341C3.83097 14.7629 4.40326 15 5 15V15.75C5 15.9489 5.07902 16.1397 5.21967 16.2803C5.36032 16.421 5.55109 16.5 5.75 16.5C5.94891 16.5 6.13968 16.421 6.28033 16.2803C6.42098 16.1397 6.5 15.9489 6.5 15.75V15H12.5V15.75C12.5 15.9489 12.579 16.1397 12.7197 16.2803C12.8603 16.421 13.0511 16.5 13.25 16.5C13.4489 16.5 13.6397 16.421 13.7803 16.2803C13.921 16.1397 14 15.9489 14 15.75V15C14.5967 15 15.169 14.7629 15.591 14.341C16.0129 13.919 16.25 13.3467 16.25 12.75V6.75C16.25 6.15326 16.0129 5.58097 15.591 5.15901C15.169 4.73705 14.5967 4.5 14 4.5ZM14.75 12.75C14.75 12.9489 14.671 13.1397 14.5303 13.2803C14.3897 13.421 14.1989 13.5 14 13.5H5C4.80109 13.5 4.61032 13.421 4.46967 13.2803C4.32902 13.1397 4.25 12.9489 4.25 12.75V6.75C4.25 6.55109 4.32902 6.36032 4.46967 6.21967C4.61032 6.07902 4.80109 6 5 6H14C14.1989 6 14.3897 6.07902 14.5303 6.21967C14.671 6.36032 14.75 6.55109 14.75 6.75V12.75Z" fill="#00639F"/>
</svg>
